<svg width="149" height="32" viewBox="0 0 149 32" fill="none" xmlns="http://www.w3.org/2000/svg">
<g clip-path="url(#clip0)">
<path d="M17.6328 15.7774H19.1186C20.9471 15.7774 21.8124 16.8335 21.8124 18.6532C21.8124 20.4728 20.9798 21.5289 19.1186 21.5289L17.6328 21.5451V15.7774Z" fill="white"/>
<path d="M3.59184 1.26889H26.2206C28.2124 1.26889 29.8125 2.8611 29.8125 4.84325V27.3617C29.8125 29.3276 28.2124 30.9361 26.2206 30.9361H3.59184C1.60004 30.9361 0 29.3438 0 27.3617V4.84325C0 2.86109 1.60004 1.26889 3.59184 1.26889ZM6.53066 26.4519H23.7227V24.9897H6.53066V26.4519ZM13.1919 19.3032V17.7272H8.58781V15.7451H13.6001L13.5838 14.1203H6.53066V23.2025H13.6818V21.529H8.58781V19.3032H13.1919V19.3032ZM15.6083 23.17H19.3635C22.2533 23.17 23.8696 21.5615 23.8696 18.637C23.8696 15.7126 22.2369 14.1041 19.3635 14.1041H15.6083V23.17V23.17ZM23.5268 12.9018C23.8043 12.9018 24.0818 12.7718 24.2614 12.5119C24.5063 12.122 24.3921 11.6021 24.0002 11.3583L14.9062 5.55811L5.81227 11.3583C5.42043 11.6021 5.30615 12.122 5.55108 12.5119C5.79598 12.9018 6.31844 13.0155 6.71028 12.7718L14.8899 7.55653L23.0696 12.7718C23.2165 12.8531 23.3635 12.9018 23.5268 12.9018Z" fill="white"/>
<path d="M36.207 17.251V1.28845H45.5053V3.7481H39.6037V8.06498H45.085V10.3908H39.6037V14.8081H45.9426V17.2677H36.207V17.251Z" fill="white"/>
<path d="M55.392 17.2508V9.55403C55.392 8.16527 55.123 7.42903 53.8451 7.42903C53.0885 7.42903 52.1299 7.98119 51.6423 8.24891V17.2341H48.2795V4.90248H51.6423V6.24105C52.0292 5.75583 53.6265 4.61804 54.9717 4.61804C58.4521 4.61804 58.7211 7.0442 58.7211 9.35325V17.2676L55.392 17.2508Z" fill="white"/>
<path d="M66.1361 22.3208C64.421 22.3208 62.8741 22.0531 61.6635 21.6348L62.1848 19.1752C63.5467 19.4597 64.9423 19.7274 65.7158 19.7274C67.2964 19.7274 68.137 19.2421 68.137 17.3681V16.7156C68.0866 16.7323 67.2458 17.4685 66.0185 17.4685C64.068 17.4685 60.9236 16.6821 60.9236 11.2107C60.9236 6.97741 63.53 4.63492 66.8254 4.63492C68.1033 4.63492 69.4989 4.81897 71.4831 5.15361V17.4852C71.4998 21.0827 69.0449 22.3208 66.1361 22.3208ZM68.137 7.2786C67.7837 7.21166 67.4307 7.14474 66.8591 7.14474C65.0096 7.14474 64.236 8.95183 64.236 11.2107C64.236 14.0217 65.2282 15.0424 66.6238 15.0424C67.2291 15.0424 67.6997 14.7746 68.12 14.5738L68.137 7.2786Z" fill="white"/>
<path d="M74.3245 17.2518V0.218445H77.6872V17.2518H74.3245V17.2518Z" fill="white"/>
<path d="M80.5623 17.2509V4.91928H83.9253V17.2509H80.5623V17.2509Z" fill="white"/>
<path d="M90.0289 17.4684C88.5157 17.4684 87.2715 17.3178 86.0442 16.933L86.4308 14.6407C87.5068 14.8414 88.667 15.0422 89.7936 15.0422C90.7185 15.0422 91.6431 14.6909 91.6431 13.8877C91.6431 11.9635 86.2459 11.93 86.2459 8.39956C86.2459 6.05704 88.1457 4.70175 90.8528 4.70175C92.2317 4.70175 93.392 4.96947 94.4006 5.37102L93.8793 7.57968C92.938 7.32869 91.9458 7.11119 90.8192 7.11119C90.0626 7.11119 89.5413 7.46255 89.5413 8.11512C89.5413 9.98912 94.9388 9.97237 94.9388 13.5865C94.9388 16.1298 92.7024 17.4684 90.0289 17.4684Z" fill="white"/>
<path d="M104.153 17.2518V9.55501C104.153 8.16625 103.884 7.43001 102.606 7.43001C101.849 7.43001 100.891 7.9822 100.403 8.24989V17.2351H97.0403V0.218445H100.403V6.25878C100.79 5.77353 102.387 4.63574 103.732 4.63574C107.213 4.63574 107.482 7.0619 107.482 9.37096V17.2853H104.153V17.2518Z" fill="white"/>
<path d="M82.076 3.24604C82.9767 3.24604 83.7068 2.5194 83.7068 1.62302C83.7068 0.726653 82.9767 0 82.076 0C81.1753 0 80.4451 0.726653 80.4451 1.62302C80.4451 2.5194 81.1753 3.24604 82.076 3.24604Z" fill="white"/>
<path d="M59.4613 21.3336H36.2241V19.3425H59.8983L59.4613 21.3336Z" fill="white"/>
<path d="M73.6687 19.3425H148.929V21.3336H73.2314L73.6687 19.3425Z" fill="white"/>
<path d="M114.241 17.3178H110.004V0.652496H114.157C118.327 0.652496 121.303 3.29619 121.303 8.93494C121.286 14.6908 118.596 17.3178 114.241 17.3178ZM114.09 3.24599H112.879V14.7577H114.426C117.049 14.7577 118.327 12.6829 118.327 9.16919C118.327 5.37096 116.847 3.24599 114.09 3.24599Z" fill="white"/>
<path d="M127.423 17.5855C124.346 17.5855 122.716 15.0087 122.716 11.0097C122.716 6.79325 124.615 4.14957 127.592 4.14957C130.938 4.14957 132.384 6.75978 132.384 10.8926C132.384 15.2263 130.349 17.5855 127.423 17.5855ZM127.524 6.69284C126.095 6.69284 125.574 8.75092 125.574 10.9094C125.574 13.2017 126.112 15.0087 127.558 15.0087C129.021 15.0087 129.458 13.1682 129.458 10.8759C129.458 8.75092 129.054 6.69284 127.524 6.69284Z" fill="white"/>
<path d="M146.071 17.3178V9.21941C146.071 7.76371 145.936 7.04422 144.843 7.04422C144.254 7.04422 143.498 7.56294 143.027 7.91429C143.044 8.33259 143.077 8.76764 143.077 9.16922V17.3178H140.219V9.21941C140.219 7.76371 140.051 7.04422 138.992 7.04422C138.336 7.04422 137.663 7.62985 137.243 7.94776V17.3345H134.351V4.45073H137.243V5.82277C137.579 5.30408 138.941 4.14957 140.068 4.14957C141.564 4.14957 142.321 4.83558 142.724 5.82277C143.195 5.23713 144.675 4.14957 145.953 4.14957C148.862 4.14957 148.979 6.69284 148.979 9.16922V17.3178H146.071V17.3178Z" fill="white"/>
<path d="M40.3939 29.3522C40.3939 29.6491 40.3354 29.8984 40.218 30.1002C40.1005 30.3029 39.9454 30.4649 39.7516 30.5881C39.5578 30.7113 39.3369 30.7996 39.0899 30.853C38.8425 30.9063 38.5887 30.9335 38.3287 30.9335H36.1716V25.4989H38.3287C38.538 25.4989 38.7521 25.5203 38.9715 25.5639C39.1905 25.6076 39.3891 25.6813 39.5679 25.7861C39.7463 25.8918 39.8917 26.0335 40.0039 26.2129C40.116 26.3914 40.1721 26.6194 40.1721 26.8959C40.1721 27.1976 40.0904 27.4469 39.9275 27.6438C39.7642 27.8408 39.55 27.9834 39.2847 28.0697V28.0852C39.4379 28.1114 39.5819 28.158 39.7173 28.2278C39.8521 28.2967 39.9696 28.385 40.0691 28.4927C40.1682 28.5994 40.2475 28.7255 40.306 28.8681C40.3644 29.0117 40.3939 29.1727 40.3939 29.3522ZM38.9101 27.0724C38.9101 26.8881 38.84 26.7533 38.6999 26.6689C38.5592 26.5845 38.3519 26.5428 38.0764 26.5428H37.4341V27.6632H38.1378C38.3823 27.6632 38.5723 27.6138 38.7076 27.5138C38.8425 27.4139 38.9101 27.2665 38.9101 27.0724ZM39.0861 29.229C39.0861 29.0039 39.002 28.8477 38.8338 28.7614C38.6651 28.6741 38.4408 28.6304 38.1605 28.6304H37.4341V29.8741H38.1682C38.2702 29.8741 38.3761 29.8654 38.4858 29.847C38.595 29.8295 38.6946 29.7975 38.784 29.7509C38.8729 29.7053 38.9459 29.6403 39.002 29.5559C39.058 29.4715 39.0861 29.3629 39.0861 29.229Z" fill="white"/>
<path d="M42.3442 30.9335V32.0006H41.2737V29.8285H42.207L43.8435 25.4989H45.1132L46.7347 29.8285H47.6989V32.0006H46.6279V30.9335H42.3442V30.9335ZM43.553 29.8285H45.3428L44.4481 26.9725L43.553 29.8285Z" fill="white"/>
<path d="M54.4754 28.1923C54.4754 28.6221 54.4014 29.015 54.2535 29.371C54.1056 29.7261 53.9002 30.0307 53.6378 30.2839C53.3748 30.5371 53.0626 30.733 52.7006 30.8718C52.3386 31.0095 51.9461 31.0784 51.5228 31.0784C51.0994 31.0784 50.7084 31.0095 50.3488 30.8718C49.9892 30.733 49.6779 30.5371 49.4155 30.2839C49.1526 30.0307 48.9476 29.7261 48.7997 29.371C48.6518 29.015 48.5779 28.6221 48.5779 28.1923C48.5779 27.7577 48.6518 27.3648 48.7997 27.0136C48.9476 26.6634 49.1526 26.3656 49.4155 26.1202C49.6779 25.8738 49.9892 25.6846 50.3488 25.5517C50.7084 25.4188 51.0994 25.3518 51.5228 25.3518C51.9461 25.3518 52.3386 25.4188 52.7006 25.5517C53.0626 25.6846 53.3748 25.8738 53.6378 26.1202C53.9002 26.3656 54.1056 26.6634 54.2535 27.0136C54.4014 27.3648 54.4754 27.7577 54.4754 28.1923ZM53.0757 28.1923C53.0757 27.9576 53.037 27.7373 52.9606 27.5326C52.8843 27.3279 52.7784 27.1524 52.6431 27.0068C52.5082 26.8604 52.3449 26.7459 52.154 26.6605C51.9626 26.5761 51.7523 26.5344 51.5228 26.5344C51.2932 26.5344 51.0839 26.5761 50.8954 26.6605C50.7069 26.7459 50.5435 26.8604 50.4058 27.0068C50.2685 27.1524 50.1622 27.3279 50.0887 27.5326C50.0148 27.7373 49.9776 27.9576 49.9776 28.1923C49.9776 28.4378 50.0158 28.6648 50.0926 28.8714C50.169 29.079 50.2748 29.2565 50.4097 29.405C50.545 29.5534 50.7069 29.6698 50.8954 29.7542C51.0839 29.8386 51.2932 29.8813 51.5228 29.8813C51.7523 29.8813 51.9611 29.8386 52.1501 29.7542C52.3386 29.6698 52.502 29.5534 52.6397 29.405C52.777 29.2565 52.8843 29.079 52.9606 28.8714C53.037 28.6648 53.0757 28.4378 53.0757 28.1923Z" fill="white"/>
<path d="M59.2179 30.9335L58.0323 29.0146L56.8927 30.9335H55.332L57.2291 28.0629L55.4852 25.4989H57.0609L58.0705 27.1879L59.0647 25.4989H60.5872L58.8738 28.0629L60.8317 30.9335H59.2179Z" fill="white"/>
<path d="M65.3594 30.9335V28.6615H63.2483V30.9335H61.9404V25.4989H63.2483V27.5556H65.3594V25.4989H66.6678V30.9335H65.3594Z" fill="white"/>
<path d="M74.0413 28.1923C74.0413 28.6221 73.9673 29.015 73.8194 29.371C73.6715 29.7261 73.4661 30.0307 73.2037 30.2839C72.9408 30.5371 72.6285 30.733 72.2665 30.8718C71.9045 31.0095 71.5121 31.0784 71.0887 31.0784C70.6653 31.0784 70.2743 31.0095 69.9147 30.8718C69.5551 30.733 69.2438 30.5371 68.9814 30.2839C68.7185 30.0307 68.5135 29.7261 68.3656 29.371C68.2177 29.015 68.1438 28.6221 68.1438 28.1923C68.1438 27.7577 68.2177 27.3648 68.3656 27.0136C68.5135 26.6634 68.7185 26.3656 68.9814 26.1202C69.2438 25.8738 69.5551 25.6846 69.9147 25.5517C70.2743 25.4188 70.6653 25.3518 71.0887 25.3518C71.5121 25.3518 71.9045 25.4188 72.2665 25.5517C72.6285 25.6846 72.9408 25.8738 73.2037 26.1202C73.4661 26.3656 73.6715 26.6634 73.8194 27.0136C73.9673 27.3648 74.0413 27.7577 74.0413 28.1923ZM72.6416 28.1923C72.6416 27.9576 72.6029 27.7373 72.5266 27.5326C72.4502 27.3279 72.3443 27.1524 72.209 27.0068C72.0742 26.8604 71.9108 26.7459 71.7199 26.6605C71.5285 26.5761 71.3182 26.5344 71.0887 26.5344C70.8591 26.5344 70.6498 26.5761 70.4613 26.6605C70.2728 26.7459 70.1095 26.8604 69.9717 27.0068C69.8345 27.1524 69.7281 27.3279 69.6547 27.5326C69.5807 27.7373 69.5435 27.9576 69.5435 28.1923C69.5435 28.4378 69.5817 28.6648 69.6585 28.8714C69.7349 29.079 69.8407 29.2565 69.9756 29.405C70.1109 29.5534 70.2728 29.6698 70.4613 29.7542C70.6498 29.8386 70.8591 29.8813 71.0887 29.8813C71.3182 29.8813 71.527 29.8386 71.716 29.7542C71.9045 29.6698 72.0679 29.5534 72.2056 29.405C72.3429 29.2565 72.4502 29.079 72.5266 28.8714C72.6029 28.6648 72.6416 28.4378 72.6416 28.1923Z" fill="white"/>
<path d="M79.7396 29.3522C79.7396 29.6491 79.6811 29.8984 79.5637 30.1002C79.4462 30.3029 79.2911 30.4649 79.0973 30.5881C78.9035 30.7113 78.6826 30.7996 78.4356 30.853C78.1882 30.9063 77.9344 30.9335 77.6744 30.9335H75.5173V25.4989H77.6744C77.8837 25.4989 78.0978 25.5203 78.3172 25.5639C78.5362 25.6076 78.7348 25.6813 78.9136 25.7861C79.092 25.8918 79.2375 26.0335 79.3496 26.2129C79.4617 26.3914 79.5178 26.6194 79.5178 26.8959C79.5178 27.1976 79.4361 27.4469 79.2732 27.6438C79.1099 27.8408 78.8957 27.9834 78.6304 28.0697V28.0852C78.7836 28.1114 78.9276 28.158 79.063 28.2278C79.1978 28.2967 79.3153 28.385 79.4148 28.4927C79.5139 28.5994 79.5932 28.7255 79.6517 28.8681C79.7101 29.0117 79.7396 29.1727 79.7396 29.3522ZM78.2558 27.0724C78.2558 26.8881 78.1857 26.7533 78.0456 26.6689C77.9049 26.5845 77.6976 26.5428 77.4221 26.5428H76.7798V27.6632H77.4835C77.728 27.6632 77.918 27.6138 78.0533 27.5138C78.1882 27.4139 78.2558 27.2665 78.2558 27.0724ZM78.4318 29.229C78.4318 29.0039 78.3477 28.8477 78.1795 28.7614C78.0108 28.6741 77.7865 28.6304 77.5062 28.6304H76.7798V29.8741H77.5139C77.6159 29.8741 77.7218 29.8654 77.8315 29.847C77.9407 29.8295 78.0403 29.7975 78.1297 29.7509C78.2186 29.7053 78.2916 29.6403 78.3477 29.5559C78.4037 29.4715 78.4318 29.3629 78.4318 29.229Z" fill="white"/>
<path d="M81.9502 30.9335H80.55L82.6539 25.4989H83.9923L86.1416 30.9335H84.7114L83.3345 27.3101L81.9502 30.9335Z" fill="white"/>
<path d="M88.1761 28.4694C87.8093 28.4083 87.5135 28.2686 87.2887 28.0513C87.0645 27.834 86.9523 27.543 86.9523 27.1801C86.9523 26.6475 87.1577 26.2343 87.5681 25.9403C87.9784 25.6454 88.5864 25.4989 89.3921 25.4989H91.3733V30.9335H90.0731V28.9603H89.6067C89.2239 28.9603 88.9001 29.1291 88.6353 29.4676C88.3699 29.8052 88.194 30.2942 88.1075 30.9335H86.6846C86.7049 30.6114 86.7609 30.3194 86.8528 30.0584C86.9446 29.7975 87.0567 29.5676 87.1896 29.3677C87.3221 29.1679 87.4738 28.9952 87.6444 28.8497C87.8155 28.7032 87.9924 28.5819 88.1761 28.4849V28.4694V28.4694ZM90.0731 26.6039H89.5072C89.0992 26.6039 88.8044 26.6582 88.6237 26.7649C88.4424 26.8726 88.352 27.0336 88.352 27.249C88.352 27.3305 88.3714 27.4091 88.4095 27.4828C88.4477 27.5575 88.5115 27.6215 88.6005 27.6749C88.6899 27.7282 88.8097 27.7719 88.96 27.8049C89.1104 27.8388 89.2979 27.8553 89.5221 27.8553H90.0731V26.6039Z" fill="white"/>
<path d="M93.1021 30.9335V25.4989H96.7429V26.6039H94.3645V27.6322H96.6129V28.6848H94.3645V29.813H96.8807V30.9335H93.1021Z" fill="white"/>
<path d="M103.267 30.9335L103.298 27.088H103.275L101.868 30.9335H100.95L99.5805 27.088H99.5577L99.5882 30.9335H98.3567V25.4989H100.218L101.451 28.9836H101.481L102.661 25.4989H104.552V30.9335H103.267Z" fill="white"/>
<path d="M113.02 29.3522C113.02 29.6491 112.961 29.8984 112.844 30.1002C112.726 30.3029 112.571 30.4649 112.377 30.5881C112.184 30.7113 111.963 30.7996 111.716 30.853C111.468 30.9063 111.214 30.9335 110.954 30.9335H108.797V25.4989H110.954C111.164 25.4989 111.378 25.5203 111.597 25.5639C111.816 25.6076 112.015 25.6813 112.194 25.7861C112.372 25.8918 112.517 26.0335 112.63 26.2129C112.742 26.3914 112.798 26.6194 112.798 26.8959C112.798 27.1976 112.716 27.4469 112.553 27.6438C112.39 27.8408 112.176 27.9834 111.91 28.0697V28.0852C112.064 28.1114 112.208 28.158 112.343 28.2278C112.478 28.2967 112.595 28.385 112.695 28.4927C112.794 28.5994 112.873 28.7255 112.932 28.8681C112.99 29.0117 113.02 29.1727 113.02 29.3522ZM111.536 27.0724C111.536 26.8881 111.466 26.7533 111.326 26.6689C111.185 26.5845 110.978 26.5428 110.702 26.5428H110.06V27.6632H110.764C111.008 27.6632 111.198 27.6138 111.333 27.5138C111.468 27.4139 111.536 27.2665 111.536 27.0724ZM111.712 29.229C111.712 29.0039 111.628 28.8477 111.459 28.7614C111.291 28.6741 111.067 28.6304 110.786 28.6304H110.06V29.8741H110.794C110.896 29.8741 111.002 29.8654 111.112 29.847C111.221 29.8295 111.32 29.7975 111.41 29.7509C111.499 29.7053 111.572 29.6403 111.628 29.5559C111.684 29.4715 111.712 29.3629 111.712 29.229Z" fill="white"/>
<path d="M115.796 25.4989V27.4789H116.133C116.443 27.4789 116.738 27.5051 117.016 27.5556C117.294 27.607 117.535 27.6953 117.739 27.8204C117.943 27.9465 118.105 28.1134 118.224 28.3239C118.344 28.5334 118.404 28.7944 118.404 29.1068C118.404 29.4191 118.344 29.6898 118.224 29.9197C118.105 30.1506 117.94 30.3398 117.731 30.4882C117.522 30.6366 117.279 30.7482 117.001 30.8219C116.723 30.8966 116.426 30.9335 116.11 30.9335H114.496V25.4989H115.796V25.4989ZM115.796 29.8285H116.232C116.558 29.8285 116.781 29.7694 116.901 29.652C117.021 29.5336 117.081 29.3774 117.081 29.1834C117.081 29.0961 117.067 29.0165 117.039 28.9457C117.011 28.8739 116.965 28.8109 116.901 28.7575C116.837 28.7032 116.751 28.6615 116.641 28.6304C116.531 28.5994 116.395 28.5848 116.232 28.5848H115.796V29.8285V29.8285ZM120.041 25.4989V30.9335H118.741V25.4989H120.041Z" fill="white"/>
<path d="M122.642 25.4989L123.774 28.2007L124.86 25.4989H126.26L124.416 29.7509C124.335 29.9411 124.241 30.1176 124.137 30.2806C124.033 30.4446 123.908 30.5852 123.762 30.7036C123.617 30.821 123.445 30.9141 123.246 30.983C123.047 31.0528 122.813 31.0868 122.543 31.0868C122.303 31.0868 122.105 31.0674 121.95 31.0295C121.794 30.9907 121.667 30.9442 121.567 30.8898C121.468 30.8355 121.388 30.7783 121.33 30.7162C121.271 30.6541 121.219 30.5998 121.173 30.5532L121.984 29.6364C122.05 29.7082 122.134 29.7829 122.237 29.8625C122.339 29.942 122.456 29.9818 122.588 29.9818C122.69 29.9818 122.782 29.9624 122.864 29.9246C122.945 29.8858 123.022 29.8208 123.093 29.7286L121.189 25.4989H122.642V25.4989Z" fill="white"/>
<path d="M130.084 25.4989H131.377V30.9335H130.092V28.9147H129.113C128.409 28.9147 127.898 28.7265 127.579 28.3501C127.261 27.9747 127.101 27.4459 127.101 26.7649V25.4989H128.401V26.4884C128.401 26.7193 128.413 26.9172 128.436 27.0841C128.459 27.25 128.502 27.3868 128.566 27.4944C128.629 27.6021 128.721 27.6817 128.841 27.7321C128.961 27.7835 129.118 27.8088 129.312 27.8088H130.084V25.4989V25.4989Z" fill="white"/>
<path d="M134.429 29.1223L136.677 25.4989H138.154V30.9335H136.853V27.3567H136.83L134.574 30.9335H133.105V25.4989H134.406V29.1223H134.429Z" fill="white"/>
<path d="M142.2 26.6194V30.9335H140.892V26.6194H139.363V25.4989H143.73V26.6194H142.2V26.6194Z" fill="white"/>
<path d="M144.939 25.4989H146.239V27.4789H146.728C147.04 27.4789 147.335 27.5071 147.612 27.5633C147.89 27.6196 148.131 27.7108 148.335 27.8359C148.539 27.9611 148.7 28.1279 148.82 28.3346C148.94 28.5422 149 28.7992 149 29.1068C149 29.4191 148.94 29.6898 148.82 29.9197C148.7 30.1506 148.536 30.3398 148.327 30.4882C148.118 30.6366 147.875 30.7482 147.597 30.8219C147.319 30.8966 147.022 30.9335 146.706 30.9335H144.939V25.4989V25.4989ZM146.239 28.5848V29.8285H146.828C147.155 29.8285 147.379 29.7703 147.501 29.6559C147.624 29.5404 147.684 29.3852 147.684 29.1912C147.684 28.9962 147.624 28.8468 147.501 28.742C147.379 28.6372 147.155 28.5848 146.828 28.5848H146.239V28.5848Z" fill="white"/>
</g>
<defs>
<clipPath id="clip0">
<rect width="149" height="32" fill="white"/>
</clipPath>
</defs>
</svg>
